<?xml version="1.0" encoding="utf-8"?>
<!-- Generator: Adobe Illustrator 16.0.0, SVG Export Plug-In . SVG Version: 6.00 Build 0)  -->
<!DOCTYPE svg PUBLIC "-//W3C//DTD SVG 1.1//EN" "http://www.w3.org/Graphics/SVG/1.1/DTD/svg11.dtd">
<svg version="1.1" id="Layer_1" xmlns="http://www.w3.org/2000/svg" xmlns:xlink="http://www.w3.org/1999/xlink" x="0px" y="0px"
	 width="300px" height="300px" viewBox="0 0 300 300" enable-background="new 0 0 300 300" xml:space="preserve">
<g>
	<g>
		<polygon fill="#185A9D" points="119.53,101.295 182.22,101.295 238.65,26.092 176.073,26.092 		"/>
		<polygon fill="#F8B64C" points="100.534,87.886 100.534,132.583 113.944,132.583 113.944,99.843 196.857,99.843 196.857,132.583 
			210.267,132.583 210.267,87.886 		"/>
		<circle fill="#FFD15C" cx="155.401" cy="191.138" r="83.696"/>
		<path fill="#F8B64C" d="M155.401,130.46c-33.523,0-60.566,27.153-60.566,60.564c0,33.523,27.153,60.567,60.566,60.567
			c33.41,0,60.565-27.153,60.565-60.567C216.077,157.613,188.924,130.46,155.401,130.46z M182.443,232.706l-27.042-14.191
			l-27.042,14.191l5.14-30.058l-21.902-21.344l30.171-4.357l13.521-27.379l13.522,27.379l30.171,4.357l-21.903,21.344
			L182.443,232.706z"/>
		<polygon fill="#4B8EC6" points="182.22,101.295 119.53,101.295 63.1,26.092 125.676,26.092 		"/>
	</g>
</g>
</svg>
