<?xml version="1.0" encoding="utf-8"?>
<!-- Generator: Adobe Illustrator 16.0.0, SVG Export Plug-In . SVG Version: 6.00 Build 0)  -->
<!DOCTYPE svg PUBLIC "-//W3C//DTD SVG 1.1//EN" "http://www.w3.org/Graphics/SVG/1.1/DTD/svg11.dtd">
<svg version="1.1" id="Layer_1" xmlns="http://www.w3.org/2000/svg" xmlns:xlink="http://www.w3.org/1999/xlink" x="0px" y="0px"
	 width="24px" height="24px" viewBox="0 0 24 24" enable-background="new 0 0 24 24" xml:space="preserve">
<path fill="#FFFFFF" d="M20.485,3.015c2.555,2.555,2.51,6.683,0.018,9.174c-1.523,1.524-3.758,2.042-5.896,1.654l-2.038,2.038
	l-1.457,0.022l-0.2,1.642L9.19,17.748l-0.231,1.759L3.56,20.03l-0.154-4.886l6.251-6.251c-0.38-2,0.074-4.316,1.654-5.896
	C13.784,0.523,17.916,0.445,20.485,3.015z M13.986,11.635c1.874,0.488,3.731,0.511,5.103-0.86c1.706-1.706,1.76-4.568-0.018-6.346
	c-1.767-1.766-4.628-1.736-6.349-0.015c-1.454,1.454-1.315,3.342-0.858,5.101l-6.433,6.432l0.059,1.888l1.692-0.164l0.226-1.726
	l1.709-0.202l0.222-1.81l2.387-0.038L13.986,11.635z M15.801,5.401c0.586-0.586,1.536-0.586,2.121,0
	c0.586,0.585,0.586,1.536,0,2.121c-0.585,0.585-1.535,0.585-2.121,0S15.215,5.987,15.801,5.401z"/>
</svg>
