<?xml version="1.0" encoding="utf-8"?>
<!-- Generator: Adobe Illustrator 16.0.0, SVG Export Plug-In . SVG Version: 6.00 Build 0)  -->
<!DOCTYPE svg PUBLIC "-//W3C//DTD SVG 1.1//EN" "http://www.w3.org/Graphics/SVG/1.1/DTD/svg11.dtd">
<svg version="1.1" id="Layer_1" xmlns="http://www.w3.org/2000/svg" xmlns:xlink="http://www.w3.org/1999/xlink" x="0px" y="0px"
	 width="300px" height="300px" viewBox="0 0 300 300" enable-background="new 0 0 300 300" xml:space="preserve">
<g>
	<path fill="none" d="M164.32,73.116c-22.65,0-41.077,18.426-41.077,41.076c0,22.652,18.426,41.082,41.077,41.082
		c22.649,0,41.075-18.43,41.075-41.082C205.396,91.542,186.97,73.116,164.32,73.116z"/>
	<g>
		<path fill="none" d="M164.32,74.616c-21.823,0-39.577,17.754-39.577,39.576c0,21.825,17.754,39.582,39.577,39.582
			c21.822,0,39.575-17.756,39.575-39.582C203.896,92.37,186.143,74.616,164.32,74.616z"/>
		<path fill="#FFFFFF" d="M164.32,63.398c-28.006,0-50.792,22.786-50.792,50.793c0,28.008,22.785,50.794,50.792,50.794
			c28.008,0,50.793-22.786,50.793-50.794C215.113,86.184,192.328,63.398,164.32,63.398z M164.32,153.773
			c-21.823,0-39.577-17.756-39.577-39.582c0-21.822,17.754-39.576,39.577-39.576c21.822,0,39.575,17.754,39.575,39.576
			C203.896,136.017,186.143,153.773,164.32,153.773z"/>
	</g>
</g>
<g>
	<g>
		<path fill="none" d="M97.469,151.637l-0.066-0.108c-0.126-0.21-0.234-0.427-0.322-0.647c-0.017-0.032-0.029-0.061-0.044-0.093
			l-31.493,19.48c-2.145,1.395-2.823,4.579-1.428,6.729c1.394,2.147,4.579,2.823,7.08,1.502l30.932-19.132
			C100.435,156.901,98.866,154.312,97.469,151.637z"/>
		<path fill="#FFFFFF" d="M163.82,40.685c-42.095,0-76.341,34.246-76.341,76.34c0,10.083,1.959,19.903,5.824,29.187l0.68,1.633
			l10.223-6.389l-0.452-1.158c-2.896-7.425-4.365-15.255-4.365-23.273c0-35.528,28.904-64.432,64.432-64.432
			c35.528,0,64.433,28.904,64.433,64.432c0,10.37-2.405,20.292-7.105,29.412l-0.142,0.269c-1.259,2.417-2.687,4.781-4.243,7.026
			l-0.071,0.106c-0.056,0.084-0.108,0.166-0.136,0.215l-52.731,87.347L122,171.25l-9.75,5.75l46.474,79.007
			c1.071,1.774,3.024,2.877,5.097,2.877c2.069,0,4.023-1.102,5.101-2.877l57.707-95.6c1.771-2.557,3.41-5.273,4.833-8.004
			l0.051-0.086c0.154-0.248,0.289-0.511,0.412-0.801c5.469-10.78,8.241-22.385,8.241-34.492
			C240.165,74.931,205.917,40.685,163.82,40.685z"/>
	</g>
	<path fill="#FFFFFF" d="M119.548,152.908c-0.928-1.11-1.859-2.215-3.345-2.608c-1.488-0.397-2.694-0.287-4.083,0.64l-42.732,27.037
		c-2.315,1.541-3.145,5.199-1.746,7.727c1.397,2.526,4.738,3.41,7.427,1.964l42.731-27.034c1.02-1.021,2.04-2.047,2.406-3.672
		C120.483,155.741,120.016,154.325,119.548,152.908z"/>
</g>
</svg>
