<?xml version="1.0" encoding="utf-8"?>
<!-- Generator: Adobe Illustrator 16.0.0, SVG Export Plug-In . SVG Version: 6.00 Build 0)  -->
<!DOCTYPE svg PUBLIC "-//W3C//DTD SVG 1.1//EN" "http://www.w3.org/Graphics/SVG/1.1/DTD/svg11.dtd">
<svg version="1.1" id="Layer_1" xmlns="http://www.w3.org/2000/svg" xmlns:xlink="http://www.w3.org/1999/xlink" x="0px" y="0px"
	 width="300px" height="300px" viewBox="0 0 300 300" enable-background="new 0 0 300 300" xml:space="preserve">
<circle opacity="0.3" fill="#7FDDFF" cx="120.5" cy="118.5" r="78"/>
<g>
	<g>
		<path fill="#BABABA" d="M178.831,57.151c-33.456-33.456-87.697-33.456-121.153,0L68.73,68.203
			c27.351-27.351,71.697-27.352,99.049,0c27.352,27.352,27.352,71.698,0,99.049l10.982,10.982c0.506-0.463,1.01-0.93,1.508-1.405
			C212.277,143.273,211.8,90.119,178.831,57.151z"/>
		<path fill="#A8A7A7" d="M174.706,181.719c1.38-1.111,2.729-2.275,4.056-3.484l-10.982-10.981
			c-27.351,27.353-71.697,27.353-99.048,0c-27.352-27.352-27.352-71.697,0-99.049L57.678,57.15
			c-33.456,33.456-33.456,87.698,0,121.153c32.187,32.188,83.61,33.401,117.255,3.657l-0.09-0.09
			C174.795,181.822,174.753,181.77,174.706,181.719z"/>
		<path opacity="0.7" fill="#185A9D" enable-background="new    " d="M265.08,264.553l4.406-4.406
			c2.781-2.783,6.769-10.858,3.986-13.641l-74.076-66.523c-2.781-2.78-7.291-2.78-10.072,0l-0.631,0.631l-3.776,3.777
			L265.08,264.553z"/>
		<path fill="#185A9D" d="M181.141,188.167l-0.631,0.63c-2.781,2.781-2.781,7.291,0,10.072l66.522,74.076
			c2.78,2.781,10.858-1.205,13.641-3.986l4.407-4.406l-80.163-80.162L181.141,188.167z"/>
		<path fill="#7E7E7F" d="M184.917,184.391l3.776-3.777l-6.098-6.1c-0.32,0.332-0.64,0.666-0.967,0.992
			c-0.449,0.449-0.904,0.887-1.359,1.323c-0.474,0.495-0.951,0.987-1.438,1.476L184.917,184.391z"/>
		<path fill="#666666" d="M178.831,178.305c-1.269,1.27-2.571,2.482-3.897,3.656l6.207,6.206l3.776-3.776L178.831,178.305z"/>
		<path fill="#7E7E7F" d="M178.831,178.305c0.487-0.488,0.966-0.979,1.438-1.476c-0.498,0.476-1.002,0.942-1.508,1.405
			L178.831,178.305z"/>
		<path fill="#7E7E7F" d="M178.762,178.234c-1.324,1.207-2.676,2.373-4.056,3.483c0.047,0.05,0.089,0.104,0.138,0.152l0.09,0.09
			c1.326-1.174,2.629-2.388,3.897-3.657L178.762,178.234z"/>
	</g>
</g>
</svg>
