<?xml version="1.0" encoding="utf-8"?>
<!-- Generator: Adobe Illustrator 16.0.0, SVG Export Plug-In . SVG Version: 6.00 Build 0)  -->
<!DOCTYPE svg PUBLIC "-//W3C//DTD SVG 1.1//EN" "http://www.w3.org/Graphics/SVG/1.1/DTD/svg11.dtd">
<svg version="1.1" id="Layer_1" xmlns="http://www.w3.org/2000/svg" xmlns:xlink="http://www.w3.org/1999/xlink" x="0px" y="0px"
	 width="24px" height="24px" viewBox="0 0 24 24" enable-background="new 0 0 24 24" xml:space="preserve">
<path fill="#FFFFFF" d="M15.5,18c0.828,0,1.5,0.672,1.5,1.5c0,0.829-0.672,1.5-1.5,1.5S14,20.329,14,19.5
	C14,18.672,14.672,18,15.5,18z M9,19.5c0,0.829,0.672,1.5,1.5,1.5s1.5-0.671,1.5-1.5S11.328,18,10.5,18S9,18.672,9,19.5z M0,3
	l0.743,2h1.929l3.475,12h13.238L24,6h-2.168l-3.777,9H7.627L4.195,3H0z"/>
</svg>
