<?xml version="1.0" encoding="utf-8"?>
<!-- Generator: Adobe Illustrator 16.0.0, SVG Export Plug-In . SVG Version: 6.00 Build 0)  -->
<!DOCTYPE svg PUBLIC "-//W3C//DTD SVG 1.1//EN" "http://www.w3.org/Graphics/SVG/1.1/DTD/svg11.dtd">
<svg version="1.1" id="Layer_1" xmlns="http://www.w3.org/2000/svg" xmlns:xlink="http://www.w3.org/1999/xlink" x="0px" y="0px"
	 width="300px" height="300px" viewBox="0 0 300 300" enable-background="new 0 0 300 300" xml:space="preserve">
<g>
	<path fill="#185A9D" d="M215.957,124.725c-5.662,5.661-14.841,5.661-20.502,0l-0.089-0.087c-5.659-5.663-5.659-14.842,0-20.503
		l20.679-20.679c5.661-5.661,14.84-5.661,20.501,0l0.089,0.089c5.661,5.66,5.661,14.84,0,20.501L215.957,124.725z"/>
	<path fill="#6B8CB7" d="M162.506,110.639c0,1.93-1.564,3.494-3.494,3.494h-15.848c-1.93,0-3.494-1.564-3.494-3.494V53.843
		c0-1.93,1.564-3.494,3.494-3.494h15.848c1.93,0,3.494,1.564,3.494,3.494V110.639z"/>
	<path fill="#185A9D" d="M173.531,42.434c0,5.306-4.497,10.277-9.804,10.277h-26.233c-5.307,0-9.636-4.971-9.636-10.277v-7.838
		c0-5.307,4.33-10.234,9.636-10.234h26.233c5.307,0,9.804,4.927,9.804,10.234V42.434z"/>
	<circle fill="#BABABA" cx="150.027" cy="169.734" r="104.664"/>
	<circle fill="#FFFFFF" cx="150.027" cy="169.734" r="79.867"/>
	<circle fill="#FFFFFF" cx="150.026" cy="169.734" r="69.267"/>
	<g>
		<g>
			<g>
				<path fill="#185A9D" d="M146.757,117.901v-10.482c0-1.929,2.008-3.495,3.938-3.495c1.929,0,3.937,1.566,3.937,3.495v10.482
					c0,1.929-2.008,3.495-3.937,3.495C148.765,121.396,146.757,119.83,146.757,117.901z"/>
			</g>
		</g>
		<g>
			<g>
				<path fill="#185A9D" d="M146.757,232.047v-10.481c0-1.93,2.008-3.494,3.938-3.494c1.929,0,3.937,1.564,3.937,3.494v10.481
					c0,1.931-2.008,3.496-3.937,3.496C148.765,235.543,146.757,233.978,146.757,232.047z"/>
			</g>
		</g>
	</g>
	<g>
		<g>
			<g>
				<path fill="#185A9D" d="M202.023,166.105h10.483c1.93,0,3.493,0.827,3.493,2.756s-1.563,2.756-3.493,2.756h-10.483
					c-1.93,0-3.494-0.827-3.494-2.756S200.094,166.105,202.023,166.105z"/>
			</g>
		</g>
		<g>
			<g>
				<path fill="#185A9D" d="M87.878,166.105H98.36c1.928,0,3.494,0.827,3.494,2.756s-1.566,2.756-3.494,2.756H87.878
					c-1.93,0-3.495-0.827-3.495-2.756S85.948,166.105,87.878,166.105z"/>
			</g>
		</g>
	</g>
	<g>
		<g>
			<g>
				<path fill="#185A9D" d="M189.313,203.494l7.412,7.413c1.364,1.364,1.364,3.578,0,4.943c-1.363,1.364-3.577,1.364-4.942,0
					l-7.411-7.414c-1.363-1.363-1.363-3.577,0-4.942C185.735,202.13,187.948,202.13,189.313,203.494z"/>
			</g>
		</g>
		<g>
			<g>
				<path fill="#185A9D" d="M108.599,122.782l7.413,7.412c1.364,1.364,1.364,3.577,0,4.941c-1.365,1.364-3.579,1.364-4.942,0
					l-7.412-7.414c-1.365-1.363-1.365-3.576,0-4.939C105.021,121.419,107.235,121.419,108.599,122.782z"/>
			</g>
		</g>
	</g>
	<g>
		<g>
			<g>
				<path fill="#185A9D" d="M116.011,208.437l-7.413,7.411c-1.363,1.367-3.577,1.367-4.942,0c-1.364-1.362-1.364-3.576,0-4.94
					l7.413-7.413c1.363-1.364,3.578-1.364,4.942,0S117.375,207.073,116.011,208.437z"/>
			</g>
		</g>
		<g>
			<g>
				<path fill="#185A9D" d="M196.724,127.722l-7.411,7.414c-1.364,1.364-3.578,1.364-4.942,0c-1.363-1.365-1.363-3.579,0-4.943
					l7.413-7.41c1.364-1.364,3.575-1.364,4.94,0C198.088,124.146,198.088,126.358,196.724,127.722z"/>
			</g>
		</g>
	</g>
	<g>
		<g>
			<circle fill="#185A9D" cx="150.027" cy="169.732" r="10.192"/>
		</g>
		<g>
			<g>
				<line x1="150.239" y1="169.851" x2="175.77" y2="144.32"/>
			</g>
			<g>
				<path fill="#185A9D" d="M147.767,172.321c-1.364-1.363-1.365-3.575,0-4.939l25.532-25.532c1.365-1.363,3.578-1.363,4.941,0
					c1.363,1.364,1.365,3.577,0,4.941l-25.531,25.53C151.344,173.687,149.131,173.687,147.767,172.321z"/>
			</g>
		</g>
	</g>
</g>
<line fill="none" x1="335.667" y1="97.667" x2="336.333" y2="97.667"/>
</svg>
