<?xml version="1.0" encoding="utf-8"?>
<!-- Generator: Adobe Illustrator 16.0.0, SVG Export Plug-In . SVG Version: 6.00 Build 0)  -->
<!DOCTYPE svg PUBLIC "-//W3C//DTD SVG 1.1//EN" "http://www.w3.org/Graphics/SVG/1.1/DTD/svg11.dtd">
<svg version="1.1" id="Layer_1" xmlns="http://www.w3.org/2000/svg" xmlns:xlink="http://www.w3.org/1999/xlink" x="0px" y="0px"
	 width="300px" height="300px" viewBox="0 0 300 300" enable-background="new 0 0 300 300" xml:space="preserve">
<g>
	<g>
		<path fill="#FCC47E" d="M103.92,142.551L103.92,142.551c11.341,0,22.214-4.506,30.231-12.521l0,0
			c10.125-10.125,15.813-23.857,15.813-38.179V69.352c0-5.217,4.23-9.449,9.446-9.449h3.538c13.045,0,23.619,10.574,23.619,23.613
			v30.701h56.667c13.039,0,23.613,10.568,23.613,23.613v59.028c0,13.039-10.574,23.611-23.613,23.611H103.92V142.551z"/>
		<rect x="33.476" y="123.268" fill="#185A9D" width="72.018" height="115.698"/>
	</g>
</g>
<rect x="33.476" y="123.268" fill="#4B8EC6" width="33.018" height="115.698"/>
<path fill="#FFFFFF" d="M65.487,201.708c-6.403,0-11.591,5.188-11.591,11.588c0,6.406,5.188,11.593,11.591,11.593
	s11.589-5.187,11.589-11.593C77.076,206.896,71.89,201.708,65.487,201.708z"/>
</svg>
